<?xml version="1.0" encoding="UTF-8" standalone="no"?>
<svg
   xmlns:dc="http://purl.org/dc/elements/1.1/"
   xmlns:cc="http://creativecommons.org/ns#"
   xmlns:rdf="http://www.w3.org/1999/02/22-rdf-syntax-ns#"
   xmlns:svg="http://www.w3.org/2000/svg"
   xmlns="http://www.w3.org/2000/svg"
   xmlns:sodipodi="http://sodipodi.sourceforge.net/DTD/sodipodi-0.dtd"
   xmlns:inkscape="http://www.inkscape.org/namespaces/inkscape"
   version="1.1"
   viewBox="-489.4955 -157.553391 544.868347 240.694153"
   id="svg92"
   sodipodi:docname="TPL Logo.svg"
   inkscape:version="1.0.1 (3bc2e813f5, 2020-09-07)">
  <metadata
     id="metadata98">
    <rdf:RDF>
      <cc:Work
         rdf:about="">
        <dc:format>image/svg+xml</dc:format>
        <dc:type
           rdf:resource="http://purl.org/dc/dcmitype/StillImage" />
      </cc:Work>
    </rdf:RDF>
  </metadata>
  <defs
     id="defs96" />
  <sodipodi:namedview
     pagecolor="#ffffff"
     bordercolor="#666666"
     borderopacity="1"
     objecttolerance="10"
     gridtolerance="10"
     guidetolerance="10"
     inkscape:pageopacity="0"
     inkscape:pageshadow="2"
     inkscape:window-width="1754"
     inkscape:window-height="761"
     id="namedview94"
     showgrid="false"
     inkscape:zoom="2.4152623"
     inkscape:cx="272.02014"
     inkscape:cy="120.34708"
     inkscape:window-x="0"
     inkscape:window-y="0"
     inkscape:window-maximized="0"
     inkscape:current-layer="layer0" />
  <!--Made with Vexlio.-->
  <g
     id="layer0">
    <rect
       style="stroke:#ffffff;stroke-opacity:1;stroke-width:4;stroke-miterlimit:4;stroke-linecap:butt;stroke-linejoin:miter;fill:#ffffff;fill-opacity:1"
       stroke-dasharray=""
       x="-487.4955"
       y="-155.553391"
       width="540.868347"
       height="236.694153"
       id="rect0" />
    <rect
       style="stroke:#000000;stroke-opacity:1;stroke-width:7;stroke-miterlimit:4;stroke-linecap:butt;stroke-linejoin:miter;fill:#ffffff;fill-opacity:1"
       transform="matrix(1 0 0 1 -68.60623 -35.35221)"
       x="-402.3088"
       y="-100.69162"
       width="436.375763"
       height="195.600891"
       id="rect1" />
    <rect
       style="stroke:#ffffff;stroke-opacity:1;stroke-width:4;stroke-miterlimit:4;stroke-linecap:butt;stroke-linejoin:miter;fill:#ffffff;fill-opacity:1"
       transform="matrix(1 0 0 1 -49.26747 -55.45387)"
       x="-1.70287323"
       y="-25.21584"
       width="46.34228"
       height="134.739319"
       id="rect2" />
    <ellipse
       style="stroke:#ffffff;stroke-opacity:0;stroke-width:1;stroke-miterlimit:4;stroke-linecap:butt;stroke-linejoin:miter;fill:#3465a4;fill-opacity:1"
       transform="matrix(1 0 0 1 -494.0859 -171.4775)"
       cx="62.10771"
       cy="183.1464"
       rx="5.01853943"
       ry="4.579811"
       id="ellipse0" />
    <ellipse
       style="stroke:#ffffff;stroke-opacity:0;stroke-width:1;stroke-miterlimit:4;stroke-linecap:butt;stroke-linejoin:miter;fill:#3465a4;fill-opacity:1"
       transform="matrix(1 0 0 1 -494.0859 -168.9775)"
       cx="149.6327"
       cy="180.6464"
       rx="5.01853943"
       ry="4.579811"
       id="ellipse1" />
    <ellipse
       style="stroke:#ffffff;stroke-opacity:0;stroke-width:1;stroke-miterlimit:4;stroke-linecap:butt;stroke-linejoin:miter;fill:#3465a4;fill-opacity:1"
       transform="matrix(1 0 0 1 -494.0859 -171.4775)"
       cx="105.26796"
       cy="62.6048355"
       rx="5.018509"
       ry="4.57984161"
       id="ellipse2" />
    <ellipse
       style="stroke:#ffffff;stroke-opacity:0;stroke-width:1;stroke-miterlimit:4;stroke-linecap:butt;stroke-linejoin:miter;fill:#3465a4;fill-opacity:1"
       transform="matrix(1 0 0 1 -494.0859 -171.4775)"
       cx="59.4981079"
       cy="67.18472"
       rx="5.01867676"
       ry="4.57984924"
       id="ellipse3" />
    <ellipse
       style="stroke:#ffffff;stroke-opacity:0;stroke-width:1;stroke-miterlimit:4;stroke-linecap:butt;stroke-linejoin:miter;fill:#3465a4;fill-opacity:1"
       transform="matrix(1 0 0 1 -494.0859 -171.4775)"
       cx="132.971"
       cy="101.441971"
       rx="5.01860046"
       ry="4.57979965"
       id="ellipse4" />
    <ellipse
       style="stroke:#ffffff;stroke-opacity:0;stroke-width:1;stroke-miterlimit:4;stroke-linecap:butt;stroke-linejoin:miter;fill:#3465a4;fill-opacity:1"
       transform="matrix(1 0 0 1 -496.5729 -170.5475)"
       cx="103.506592"
       cy="99.73711"
       rx="5.01870728"
       ry="4.579815"
       id="ellipse5" />
    <ellipse
       style="stroke:#ffffff;stroke-opacity:0;stroke-width:1;stroke-miterlimit:4;stroke-linecap:butt;stroke-linejoin:miter;fill:#3465a4;fill-opacity:1"
       transform="matrix(1 0 0 1 -494.0859 -171.4775)"
       cx="107.275742"
       cy="183.1464"
       rx="5.01860046"
       ry="4.579811"
       id="ellipse6" />
    <ellipse
       style="stroke:#ffffff;stroke-opacity:0;stroke-width:1;stroke-miterlimit:4;stroke-linecap:butt;stroke-linejoin:miter;fill:#3465a4;fill-opacity:1"
       transform="matrix(1 0 0 1 -494.0859 -171.4775)"
       cx="149.6327"
       cy="158.4152"
       rx="5.01853943"
       ry="4.579788"
       id="ellipse7" />
    <path
       style="stroke:#ffffff;stroke-opacity:0;stroke-width:1;stroke-miterlimit:4;stroke-linecap:butt;stroke-linejoin:miter;fill:#3465a4;fill-opacity:1"
       transform="matrix(1 0 0 1 -494.0859 -171.4775)"
       d="M 160.071808 49.96453 L 44.8435974 49.96453 C 42.43445 49.96453 40.4270935 51.796402 40.4270935 53.99466 L 40.4270935 143.576538 L 57.2898254 143.576538 C 58.6953125 139.179855 63.1118774 135.882355 68.53134 135.882355 C 73.5504761 135.882355 77.76575 138.8135 79.37195 142.843719 L 91.4165344 142.843719 L 126.948242 110.418488 C 123.536041 108.586411 121.327789 105.288971 121.327789 101.44191 C 121.327789 95.57977 126.547089 90.81676 132.970947 90.81676 C 139.394775 90.81676 144.614166 95.57981 144.614166 101.44191 C 144.614166 106.937675 139.997314 111.334419 134.175537 111.884033 L 94.02612 148.52269 L 79.77341 148.52269 C 78.76929 153.285736 73.95145 156.949615 68.33069 156.949615 C 63.1118774 156.949615 58.4942627 153.6522 57.0891724 149.255539 L 40.4270935 149.255539 L 40.4270935 210.625427 C 40.4270935 212.823669 42.43445 214.655731 44.8435974 214.655731 L 104.0639 214.655731 L 104.0639 193.222031 C 99.245636 191.939713 95.6323242 187.909241 95.6323242 182.963135 C 95.6323242 177.100983 100.851807 172.33786 107.275696 172.33786 C 113.699432 172.33786 118.918732 177.100983 118.918732 182.963135 C 118.918732 187.7262 115.305145 191.939713 110.487518 193.222031 L 110.487518 214.838913 L 160.071808 214.838913 C 162.480743 214.838913 164.487854 213.006958 164.487854 210.808533 L 164.487854 53.99466 C 164.487854 51.796402 162.480743 49.96453 160.071808 49.96453 Z M 100.294495 111.112312 C 93.87024 111.112312 88.65094 106.349319 88.65094 100.487129 C 88.65094 99.2047958 88.8515 97.92239 89.4536743 96.6400452 L 65.72116 76.1612244 C 63.91443 77.2604141 61.7065125 77.80994 59.2975159 77.80994 C 52.8735352 77.80994 47.6535645 73.04695 47.6535645 67.18468 C 47.6535645 61.322525 52.8735352 56.5593567 59.2975159 56.5593567 C 65.72116 56.5593567 70.9406738 61.322525 70.9406738 67.18468 C 70.9406738 68.83334 70.53931 70.29906 69.93683 71.5813446 L 93.2680054 92.06017 C 95.2756348 90.77785 97.68393 89.8619461 100.294495 89.8619461 C 106.717896 89.8619461 111.937561 94.62487 111.937561 100.487129 C 111.937561 106.3493 106.717896 111.112312 100.294495 111.112312 Z M 149.632874 193.771515 C 143.811127 193.771515 138.993225 189.924423 138.190186 184.978348 L 117.513123 165.926147 L 96.033905 165.926147 L 73.14847 186.81015 L 72.94821 186.627045 C 71.34177 190.6573 67.12625 193.771515 62.1075745 193.771515 C 55.6841125 193.771515 50.4646 189.008621 50.4646 183.146362 C 50.4646 177.284119 55.6841125 172.5211 62.1075745 172.5211 C 66.92554 172.5211 70.9406738 175.085892 72.747406 178.932861 L 93.42398 160.0639 L 120.123474 160.0639 L 139.59549 177.83371 C 141.603149 174.536224 145.417236 172.520981 149.632874 172.520981 C 156.05661 172.520981 161.276276 177.284119 161.276276 183.1463 C 161.276276 189.008621 156.05661 193.771515 149.632874 193.771515 Z M 149.632874 169.040344 C 143.209076 169.040344 137.9896 164.277435 137.9896 158.4152 C 137.9896 153.6522 141.603149 149.4388 146.4209 148.156342 L 146.4209 65.53593 L 116.3089 65.53593 C 114.903564 69.93273 110.487518 73.23011 105.067627 73.23011 C 98.64328 73.23011 93.42398 68.46708 93.42398 62.6048737 C 93.42398 56.74266 98.64328 51.97963 105.067627 51.97963 C 110.286469 51.97963 114.903564 55.2772064 116.3089 59.67373 L 152.84491 59.67373 L 164.466522 59.67373 L 164.433014 65.53593 L 152.796051 65.70793 L 152.84491 148.156342 C 157.66275 149.4388 161.276276 153.468918 161.276276 158.4152 C 161.276276 164.277435 156.05661 169.040344 149.632874 169.040344 Z"
       id="path0" />
    <ellipse
       style="stroke:#ffffff;stroke-opacity:0;stroke-width:1;stroke-miterlimit:4;stroke-linecap:butt;stroke-linejoin:miter;fill:#3465a4;fill-opacity:1"
       transform="matrix(1 0 0 1 -494.0859 -171.4775)"
       cx="68.53163"
       cy="146.507584"
       rx="5.0188446"
       ry="4.579834"
       id="ellipse8" />
    <path
       style="stroke:#ffffff;stroke-opacity:0;stroke-width:1;stroke-miterlimit:4;stroke-linecap:butt;stroke-linejoin:miter;fill:#3465a4;fill-opacity:1"
       transform="matrix(-1 0 0 1 -378.4858 -171.4775)"
       d="M -48.83319 65.53593 L -67.35681 65.53593 C -68.7623 69.93273 -73.1783142 73.23011 -78.59866 73.23011 C -85.02261 73.23011 -90.24158 68.46708 -90.24158 62.6048737 C -90.24158 56.74266 -85.02261 51.97963 -78.59866 51.97963 C -73.3793 51.97963 -68.7623 55.2772064 -67.35681 59.67373 L -48.8666077 59.67373 Z"
       id="path1" />
    <ellipse
       style="stroke:#ffffff;stroke-opacity:0;stroke-width:1;stroke-miterlimit:4;stroke-linecap:butt;stroke-linejoin:miter;fill:#ffffff;fill-opacity:1"
       transform="matrix(1 0 0 1 -449.7896 -171.4775)"
       cx="149.8947"
       cy="62.6048355"
       rx="5.0186615"
       ry="4.57984161"
       id="ellipse9" />
    <text
       style="fill:#000000;fill-opacity:1;stroke:#ffffff;stroke-width:0;stroke-linecap:butt;stroke-linejoin:miter;stroke-miterlimit:4;stroke-opacity:0"
       font-size="45.2789px"
       font-family="Silom"
       font-weight="bold"
       id="text0"
       x="-308.60529"
       y="-11.69766">Techplex Labs</text>
    <text
       style="fill:#000000;fill-opacity:1;stroke:#ffffff;stroke-width:0;stroke-linecap:butt;stroke-linejoin:miter;stroke-miterlimit:4;stroke-opacity:0"
       font-size="17.6084px"
       font-family="'American Typewriter'"
       id="text1"
       x="-220.2939"
       y="18.307518">Intuitive Software by DESIGN</text>
  </g>
</svg>
